<svg version="1.2" xmlns="http://www.w3.org/2000/svg" viewBox="0 0 65 65" width="65" height="65">
	<title>Miun_logotyp_CMYK</title>
	<style>
		.s0 { fill: #ffd500 } 
		.s1 { fill: #1072b9 } 
		.s2 { fill: #000000 } 
		.s3 { fill: none;stroke: #000000;stroke-width: .4 } 
	</style>
	<path class="s0" d="m52.2 19c0.1 0.6 0 1.3-0.4 1.8-0.5 0.6-12.7 14.1-12.7 14.1-3.4 4-4.2 1-5.7-2.2-1.5-3.3-2.2-5.1-3.5-7.9-1.4-3-2.2-4.4-5.3-0.9-3.8 4.1-12 13.5-12.7 14-0.6 0.5-1.4 0.2-1.8-0.3-3.7-5-5.6-7.9-6.6-14.5-0.1-0.5-0.2-1.1 0.5-2.1 10.5-12.5 23.6-17.6 39.9-18.5 0.8-0.1 1.4 0.4 1.8 0.8 2.6 2.5 5.6 9.7 6.5 15.7z"/>
	<g>
		<path class="s1" d="m11.3 46.4c-0.1-0.8-0.2-1.1 0.4-1.8 0.5-0.6 12.7-14.1 12.7-14.1 3.4-4 4.2-1 5.6 2.2 1.5 3.3 2.2 5.1 3.5 7.9 1.4 3 2.2 4.4 5.3 0.9 3.8-4.1 11.8-12.9 12.3-13.5 0.8-0.8 1.8-0.7 2.2-0.1 3.4 5.6 4.5 8.1 6.6 14.5 0.2 0.4 0.2 1.1-0.5 2-10.4 12.6-23.4 17.6-39.7 18.5-0.8 0.1-1.4-0.4-1.8-0.8-2.7-2.5-6.1-9.6-6.6-15.7z"/>
	</g>
	<g>
		<g>
			<path class="s2" d="m-72.9 86.3c-0.2-3.3-0.4-7.3-0.4-10.3h-0.1c-0.8 2.8-1.8 5.7-3 9l-4.2 11.5h-2.3l-3.9-11.3c-1.1-3.4-2-6.4-2.7-9.2h-0.1c-0.1 3-0.2 6.9-0.5 10.5l-0.6 10.2h-2.9l1.7-23.7h3.9l4.1 11.5c1 2.9 1.8 5.5 2.4 8h0.1c0.6-2.4 1.5-5 2.5-8l4.2-11.5h3.9l1.5 23.8h-3z"/>
			<path class="s2" d="m-62.2 76.6c-1.2 0-1.9-0.9-1.9-2 0-1.1 0.8-2 2-2 1.2 0 2 0.9 2 2-0.1 1-0.9 2-2.1 2zm-1.5 20.2v-17.1h3.1v17.1z"/>
			<path class="s2" d="m-51.2 75.6v4.1h4.4v2.4h-4.4v9.2c0 2.1 0.6 3.3 2.3 3.3 0.8 0 1.3-0.1 1.8-0.2l0.1 2.4c-0.6 0.2-1.6 0.4-2.7 0.4-1.4 0-2.6-0.5-3.3-1.3q-1.2-1.5-1.2-4.5v-9.3h-2.6v-2.4h2.6v-3.1z"/>
			<path class="s2" d="m-39 75.6v4.1h4.4v2.4h-4.4v9.2c0 2.1 0.6 3.3 2.3 3.3 0.8 0 1.3-0.1 1.8-0.2l0.1 2.4c-0.6 0.2-1.6 0.4-2.7 0.4-1.4 0-2.6-0.5-3.3-1.3q-1.2-1.5-1.2-4.5v-9.3h-2.6v-2.4h2.6v-3.1z"/>
			<path class="s2" d="m-16.3 92.1c0 1.8 0 3.3 0.1 4.7h-2.7l-0.1-2.8h-0.1c-0.8 1.4-2.6 3.2-5.6 3.2-2.7 0-5.9-1.5-5.9-7.5v-10h3.1v9.4c0 3.2 1 5.5 3.8 5.5 2.1 0 3.5-1.4 4.1-2.9 0.2-0.4 0.3-1 0.3-1.6v-10.4h3.1v12.4z"/>
			<path class="s2" d="m-10.6 84.3c0-1.8 0-3.2-0.1-4.6h2.8l0.2 2.8h0.1c0.8-1.6 2.8-3.2 5.6-3.2 2.4 0 6 1.4 6 7.3v10.2h-3.1v-9.8c0-2.8-1-5.1-3.9-5.1-2 0-3.6 1.4-4.2 3.2-0.1 0.4-0.2 1-0.2 1.4v10.3h-3.1v-12.5z"/>
			<path class="s2" d="m11 76.6c-1.2 0-1.9-0.9-1.9-2 0-1.1 0.8-2 2-2 1.2 0 2 0.9 2 2-0.1 1-0.8 2-2.1 2zm-1.5 20.2v-17.1h3.1v17.1z"/>
			<path class="s2" d="m19.5 79.7l3.3 9.6c0.6 1.6 1 3 1.4 4.4h0.1c0.4-1.4 0.9-2.8 1.4-4.4l3.3-9.6h3.2l-6.7 17.1h-3l-6.5-17.1z"/>
			<path class="s2" d="m37.2 88.7c0.1 4.2 2.7 5.9 5.8 5.9 2.2 0 3.6-0.4 4.7-0.8l0.6 2.2c-1.1 0.5-3 1.1-5.7 1.1-5.2 0-8.4-3.5-8.4-8.6 0-5.2 3.1-9.2 8-9.2 5.6 0 7 4.9 7 8 0 0.6 0 1.1-0.1 1.5zm9-2.2c0-1.9-0.8-5-4.3-5-3.2 0-4.5 2.9-4.8 5z"/>
			<path class="s2" d="m53.6 85c0-2 0-3.7-0.1-5.3h2.7l0.1 3.3h0.1c0.8-2.3 2.7-3.7 4.8-3.7 0.3 0 0.6 0 0.8 0.1v2.9c-0.4 0-0.7-0.1-1.1-0.1-2.2 0-3.7 1.7-4.2 4-0.1 0.5-0.1 1-0.1 1.5v9.1h-3.1z"/>
			<path class="s2" d="m65.2 93.6c1 0.6 2.6 1.2 4.1 1.2 2.2 0 3.3-1.1 3.3-2.5 0-1.5-0.9-2.3-3.1-3.1-3.1-1.1-4.5-2.8-4.5-4.8 0-2.8 2.3-5 5.9-5 1.7 0 3.2 0.5 4.2 1.1l-0.7 2.2c-0.7-0.4-1.9-1-3.5-1-1.8 0-2.8 1.1-2.8 2.3 0 1.4 1 2.1 3.2 2.9 2.9 1.1 4.5 2.6 4.5 5.1 0 3-2.4 5.1-6.3 5.1-1.9 0-3.6-0.5-4.8-1.2z"/>
			<path class="s2" d="m81.6 76.6c-1.2 0-1.9-0.9-1.9-2 0-1.1 0.8-2 2-2 1.2 0 2 0.9 2 2-0.1 1-0.8 2-2.1 2zm-1.5 20.2v-17.1h3.1v17.1z"/>
			<path class="s2" d="m92.6 75.6v4.1h4.4v2.4h-4.4v9.2c0 2.1 0.6 3.3 2.3 3.3 0.8 0 1.3-0.1 1.8-0.2l0.1 2.4c-0.6 0.2-1.5 0.4-2.8 0.4-1.4 0-2.6-0.5-3.3-1.3q-1.2-1.5-1.2-4.5v-9.3h-2.5v-2.4h2.6v-3.1z"/>
			<path class="s2" d="m102.7 88.7c0.1 4.2 2.7 5.9 5.8 5.9 2.2 0 3.6-0.4 4.7-0.8l0.6 2.2c-1.1 0.5-3 1.1-5.7 1.1-5.2 0-8.4-3.5-8.4-8.6 0-5.2 3.1-9.2 8-9.2 5.6 0 7 4.9 7 8 0 0.6 0 1.1-0.1 1.5zm9-2.2c0-1.9-0.8-5-4.3-5-3.2 0-4.5 2.9-4.8 5z"/>
			<path class="s2" d="m122.8 75.6v4.1h4.4v2.4h-4.4v9.2c0 2.1 0.6 3.3 2.3 3.3 0.8 0 1.3-0.1 1.8-0.2l0.1 2.4c-0.6 0.2-1.6 0.4-2.8 0.4-1.4 0-2.6-0.5-3.3-1.3q-1.2-1.5-1.2-4.5v-9.3h-2.6v-2.4h2.6v-3.1z"/>
			<path class="s2" d="m132.8 88.7c0.1 4.2 2.7 5.9 5.8 5.9 2.2 0 3.6-0.4 4.7-0.8l0.6 2.2c-1.1 0.5-3 1.1-5.7 1.1-5.2 0-8.4-3.5-8.4-8.6 0-5.2 3.1-9.2 8-9.2 5.6 0 7 4.9 7 8 0 0.6 0 1.1-0.1 1.5zm9.1-2.2c0-1.9-0.8-5-4.3-5-3.2 0-4.5 2.9-4.8 5z"/>
			<path class="s2" d="m153 75.6v4.1h4.4v2.4h-4.4v9.2c0 2.1 0.6 3.3 2.3 3.3 0.8 0 1.3-0.1 1.8-0.2l0.1 2.4c-0.6 0.2-1.6 0.4-2.8 0.4-1.4 0-2.6-0.5-3.3-1.3q-1.2-1.5-1.2-4.5v-9.3h-2.6v-2.4h2.6v-3.1z"/>
		</g>
		<path fill-rule="evenodd" class="s3" d="m-94.2 104.7h252"/>
		<g>
			<path class="s2" d="m-70.7 117.6c-0.1-1.4-0.2-3.1-0.2-4.3-0.4 1.1-0.8 2.4-1.2 3.8l-1.8 4.8h-1l-1.6-4.7c-0.5-1.4-0.9-2.7-1.1-3.9 0 1.2-0.1 2.9-0.2 4.4l-0.3 4.2h-1.2l0.7-9.9h1.6l1.7 4.8c0.4 1.2 0.7 2.3 1 3.3 0.3-1 0.6-2.1 1.1-3.3l1.8-4.8h1.6l0.6 9.9h-1.3z"/>
			<path class="s2" d="m-62.7 112.1v9.9h-1.3v-9.9z"/>
			<path class="s2" d="m-57.2 112.2c0.8-0.1 1.7-0.2 2.7-0.2 1.8 0 3.1 0.4 4 1.2 0.9 0.8 1.4 2 1.4 3.6 0 1.6-0.5 2.9-1.4 3.9-0.9 0.9-2.5 1.4-4.4 1.4-0.9 0-1.7 0-2.3-0.1zm1.3 8.8c0.3 0.1 0.8 0.1 1.3 0.1 2.7 0 4.2-1.5 4.2-4.2 0-2.4-1.3-3.8-4-3.8-0.7 0-1.2 0.1-1.5 0.1z"/>
			<path class="s2" d="m-38.9 120.4c0.6 0.4 1.4 0.6 2.3 0.6 1.3 0 2.1-0.7 2.1-1.7 0-0.9-0.5-1.5-1.9-2-1.6-0.6-2.6-1.4-2.6-2.8 0-1.5 1.3-2.7 3.2-2.7 1 0 1.8 0.2 2.2 0.5l-0.4 1c-0.3-0.2-1-0.5-1.9-0.5-1.4 0-1.9 0.8-1.9 1.5 0 0.9 0.6 1.4 2 1.9 1.7 0.7 2.5 1.5 2.5 2.9 0 1.5-1.1 2.9-3.5 2.9-1 0-2-0.3-2.5-0.6z"/>
			<path class="s2" d="m-26.6 122l-2.5-9.9h1.4l1.2 5c0.3 1.2 0.6 2.5 0.7 3.4 0.2-1 0.5-2.2 0.8-3.4l1.3-5h1.3l1.2 5c0.3 1.2 0.5 2.4 0.7 3.4 0.2-1.1 0.5-2.2 0.8-3.4l1.3-5h1.4l-2.8 9.9h-1.3l-1.3-5.1c-0.3-1.3-0.5-2.2-0.6-3.2-0.2 1-0.4 2-0.8 3.2l-1.4 5.2h-1.4z"/>
			<path class="s2" d="m-7.5 117.3h-3.8v3.6h4.3v1.1h-5.6v-9.9h5.4v1.1h-4.1v3.1h3.8z"/>
			<path class="s2" d="m-2.1 112.2c0.8-0.1 1.7-0.2 2.7-0.2 1.8 0 3.1 0.4 4 1.2 0.9 0.8 1.4 2 1.4 3.6 0 1.6-0.5 2.9-1.4 3.9-0.9 0.9-2.5 1.4-4.4 1.4-0.9 0-1.7 0-2.3-0.1zm1.3 8.8c0.3 0.1 0.8 0.1 1.3 0.1 2.7 0 4.2-1.5 4.2-4.2 0-2.4-1.3-3.8-4-3.8-0.7 0-1.2 0.1-1.5 0.1z"/>
			<path class="s2" d="m16 117.3h-3.8v3.6h4.3v1.1h-5.6v-9.9h5.4v1.1h-4.1v3.1h3.8z"/>
			<path class="s2" d="m21.4 122v-9.9h1.4l3.2 5c0.7 1.2 1.3 2.2 1.8 3.2-0.1-1.3-0.1-2.5-0.1-4.1v-4.2h1.2v9.9h-1.3l-3.1-5c-0.7-1.1-1.4-2.2-1.8-3.3 0.1 1.2 0.1 2.4 0.1 4.1v4.2h-1.4z"/>
			<path class="s2" d="m41 112.1v5.9c0 2.2 1 3.1 2.3 3.1 1.5 0 2.4-1 2.4-3.1v-5.9h1.3v5.8c0 3-1.6 4.3-3.7 4.3-2 0-3.6-1.1-3.6-4.2v-5.8h1.3z"/>
			<path class="s2" d="m52.5 122v-9.9h1.4l3.2 5c0.7 1.2 1.3 2.2 1.8 3.2-0.1-1.3-0.1-2.5-0.1-4.1v-4.2h1.2v9.9h-1.3l-3.1-5c-0.7-1.1-1.4-2.2-1.8-3.3 0.1 1.2 0.1 2.4 0.1 4.1v4.2h-1.4z"/>
			<path class="s2" d="m66.7 112.1v9.9h-1.3v-9.9z"/>
			<path class="s2" d="m74.3 122l-3.2-9.9h1.4l1.5 4.9c0.4 1.3 0.8 2.6 1.1 3.7 0.3-1.1 0.7-2.4 1.1-3.7l1.7-4.9h1.4l-3.5 9.9z"/>
			<path class="s2" d="m88.7 117.3h-3.8v3.6h4.3v1.1h-5.6v-9.9h5.4v1.1h-4.1v3.1h3.8z"/>
			<path class="s2" d="m94.1 112.2c0.6-0.1 1.6-0.2 2.5-0.2 1.4 0 2.3 0.3 2.9 0.8 0.5 0.4 0.8 1.1 0.8 1.9 0 1.3-0.8 2.2-1.9 2.5 0.7 0.3 1.2 1 1.5 2 0.3 1.4 0.6 2.3 0.8 2.7h-1.3q-0.3-0.5-0.6-2.4c-0.3-1.4-0.8-1.9-2-1.9h-1.2v4.3h-1.3v-9.7zm1.2 4.5h1.3c1.4 0 2.2-0.7 2.2-1.9 0-1.3-0.9-1.8-2.3-1.8-0.6 0-1 0.1-1.3 0.1v3.6z"/>
			<path class="s2" d="m105 120.4c0.6 0.4 1.4 0.6 2.3 0.6 1.3 0 2.1-0.7 2.1-1.7 0-0.9-0.5-1.5-1.9-2-1.6-0.6-2.6-1.4-2.6-2.8 0-1.5 1.3-2.7 3.2-2.7 1 0 1.7 0.2 2.2 0.5l-0.4 1c-0.3-0.2-1-0.5-1.9-0.5-1.4 0-1.9 0.8-1.9 1.5 0 0.9 0.6 1.4 2 1.9 1.7 0.7 2.5 1.5 2.5 2.9 0 1.5-1.1 2.9-3.5 2.9-1 0-2-0.3-2.5-0.6z"/>
			<path class="s2" d="m117 112.1v9.9h-1.3v-9.9z"/>
			<path class="s2" d="m124.3 113.2h-3v-1.1h7.3v1.1h-3v8.8h-1.3z"/>
			<path class="s2" d="m135.7 122v-4.2l-3.1-5.7h1.5l1.4 2.7c0.4 0.7 0.7 1.4 1 2 0.3-0.6 0.6-1.3 1-2l1.4-2.7h1.4l-3.3 5.7v4.2z"/>
		</g>
	</g>
</svg>